@startuml

class ch.hslu.cas.msed.blobfish.Main {
	{method}  {static} ~main () : void
}


class ch.hslu.cas.msed.blobfish.base.BoardTransformationUtil {
	{method}  {static} +flipFileIndex ( paramint1 : int ) : int
	{method}  {static} +flipRankIndex ( paramint1 : int ) : int
	{method}  {static} +rotateBoardIndex ( paramint1 : int ) : int
}


abstract class ch.hslu.cas.msed.blobfish.base.BotAlgorithm {
	{field} -calculationDepth : int
	{method}  {abstract} +getBestPath ( paramChessBoard1 : ch.hslu.cas.msed.blobfish.base.ChessBoard ) : ch.hslu.cas.msed.blobfish.base.PathEvaluation
}


class ch.hslu.cas.msed.blobfish.base.ChessBoard {
	{field} {static} -STARTPOSITION_FEN : String
	{field} -board : com.github.bhlangonijr.chesslib.Board
	{method} +boardToArray () : [Lch.hslu.cas.msed.blobfish.base.Piece;
	{method} +doMove ( paramString1 : String ) : ch.hslu.cas.msed.blobfish.base.ChessBoard
	{method} +getFen () : String
	{method} +getSideToMove () : ch.hslu.cas.msed.blobfish.base.PlayerColor
	{method} +isCapture ( paramMove1 : com.github.bhlangonijr.chesslib.move.Move ) : boolean
	{method} +isEndGame () : boolean
	{method} +isGameOver () : boolean
	{method} +isMated () : boolean
	{method} +isMoveLegal ( paramString1 : String ) : boolean
	{method} +legalMoves () : java.util.List
}


interface ch.hslu.cas.msed.blobfish.base.EvaluationStrategy {
	{method}  {abstract} +getEvaluation ( paramChessBoard1 : ch.hslu.cas.msed.blobfish.base.ChessBoard ) : int
}


class ch.hslu.cas.msed.blobfish.base.FenUtil {
	{method}  {static} +getFenPositionBlocks ( paramString1 : String ) : [Ljava.lang.String;
	{method}  {static} +validateFenString ( paramString1 : String ) : void
}


class ch.hslu.cas.msed.blobfish.base.PathEvaluation {
	{field} -eval : double
	{field} -move : java.util.List
	{method} +equals ( paramObject1 : Object ) : boolean
	{method} +eval () : double
	{method} +hashCode () : int
	{method} +move () : java.util.List
	{method} +toString () : String
}


class ch.hslu.cas.msed.blobfish.base.Piece {
	{method} +color () : ch.hslu.cas.msed.blobfish.base.PlayerColor
	{method} +equals ( paramObject1 : Object ) : boolean
	{method} +fen () : Character
	{method} +hashCode () : int
	{method} +materialPoints () : int
	{method} +toString () : String
	{method} +type () : ch.hslu.cas.msed.blobfish.base.PieceType
}


enum ch.hslu.cas.msed.blobfish.base.PieceType {
	{field} +BISHOP
	{field} +KING
	{field} +KNIGHT
	{field} +PAWN
	{field} +QUEEN
	{field} +ROOK
}


enum ch.hslu.cas.msed.blobfish.base.PlayerColor {
	{field} +BLACK
	{field} +WHITE
}


class ch.hslu.cas.msed.blobfish.base.ThreadLocalUtils {
	{method}  {static} +resetStaticThreadLocal ( paramClass1 : Class , paramString2 : String ) : void
}


class ch.hslu.cas.msed.blobfish.base.exception.InvalidMoveException {
	{field} -originalMove : String
}


class ch.hslu.cas.msed.blobfish.eval.CompositeEvaluationStrategy {
	{method}  {static} +builder () : ch.hslu.cas.msed.blobfish.eval.CompositeEvaluationStrategy$Builder
	{method} +getEvaluation ( paramChessBoard1 : ch.hslu.cas.msed.blobfish.base.ChessBoard ) : int
}


class ch.hslu.cas.msed.blobfish.eval.CompositeEvaluationStrategy$Builder {
	{method} +add ( paramEvaluationStrategy1 : ch.hslu.cas.msed.blobfish.base.EvaluationStrategy ) : ch.hslu.cas.msed.blobfish.eval.CompositeEvaluationStrategy$Builder
	{method} +build () : ch.hslu.cas.msed.blobfish.eval.CompositeEvaluationStrategy
}


class ch.hslu.cas.msed.blobfish.eval.MateAwareEvaluation {
	{field} {static} -MAX_NUMBER : int
	{method} +getEvaluation ( paramChessBoard1 : ch.hslu.cas.msed.blobfish.base.ChessBoard ) : int
}


class ch.hslu.cas.msed.blobfish.eval.MaterialEvaluation {
	{method} +getEvaluation ( paramChessBoard1 : ch.hslu.cas.msed.blobfish.base.ChessBoard ) : int
	{method} -parseFen ( paramString1 : String ) : java.util.List
	{method} -removeEmptyFieldsFromPosition ( paramString1 : String ) : String
}


class ch.hslu.cas.msed.blobfish.eval.PieceSquareEvaluation {
	{field} -BISHOP_PST : [I
	{field} -KING_END_PST : [I
	{field} -KING_OPENING_PST : [I
	{field} -KNIGHT_PST : [I
	{field} -PAWN_PST : [I
	{field} -QUEEN_PST : [I
	{field} -ROOK_PST : [I
	{method} +getEvaluation ( paramChessBoard1 : ch.hslu.cas.msed.blobfish.base.ChessBoard ) : int
	{method} -getPieceValue ( paramint1 : int , paramPiece2 : ch.hslu.cas.msed.blobfish.base.Piece , paramboolean3 : boolean ) : int
	{method} -getPstForPiece ( paramPiece1 : ch.hslu.cas.msed.blobfish.base.Piece , paramboolean2 : boolean ) : [I
}


class ch.hslu.cas.msed.blobfish.game.ChessGame {
	{field} -terminal : org.jline.terminal.Terminal
	{method} -shouldRestart ( paramInputReader1 : ch.hslu.cas.msed.blobfish.game.InputReader , paramOutputWriter2 : ch.hslu.cas.msed.blobfish.game.OutputWriter ) : boolean
	{method} +start () : void
	{method} -writeEndGameMessage ( paramOutputWriter1 : ch.hslu.cas.msed.blobfish.game.OutputWriter ) : void
}


class ch.hslu.cas.msed.blobfish.game.InputReader {
	{field} -reader : org.jline.reader.LineReader
	{method} +readLine ( paramString1 : String ) : String
}


class ch.hslu.cas.msed.blobfish.game.MatchConfig {
	{method} +black () : ch.hslu.cas.msed.blobfish.game.player.AbstractPlayer
	{method} +equals ( paramObject1 : Object ) : boolean
	{method} +hashCode () : int
	{method} +toString () : String
	{method} +white () : ch.hslu.cas.msed.blobfish.game.player.AbstractPlayer
}


class ch.hslu.cas.msed.blobfish.game.OutputWriter {
	{field} -terminal : org.jline.terminal.Terminal
	{method} +flush () : void
	{method} +print ( paramString1 : String ) : void
	{method} +printAndFlush ( paramString1 : String ) : void
	{method} +println ( paramString1 : String ) : void
	{method} +printlnAndFlush ( paramString1 : String ) : void
}


class ch.hslu.cas.msed.blobfish.game.exception.GameAbortedException {
}


class ch.hslu.cas.msed.blobfish.game.exception.MatchAbortedException {
}


abstract class ch.hslu.cas.msed.blobfish.game.player.AbstractPlayer {
	{method}  {abstract} +getNextMove ( paramChessBoard1 : ch.hslu.cas.msed.blobfish.base.ChessBoard ) : String
}


interface ch.hslu.cas.msed.blobfish.game.player.BotAlgorithmProvider {
	{method}  {abstract} +create ( paramint1 : int , paramEvaluationStrategy2 : ch.hslu.cas.msed.blobfish.base.EvaluationStrategy , paramPlayerColor3 : ch.hslu.cas.msed.blobfish.base.PlayerColor ) : ch.hslu.cas.msed.blobfish.base.BotAlgorithm
	{method}  {abstract} +getAlgorithmName () : String
}


abstract class ch.hslu.cas.msed.blobfish.game.player.BotPlayer {
}


class ch.hslu.cas.msed.blobfish.game.player.BotPlayerFactory {
	{method}  {static} -botSupportsAlgorithm ( paramBotPlayerProvider1 : ch.hslu.cas.msed.blobfish.game.player.BotPlayerProvider , paramClass2 : Class ) : boolean
	{method}  {static} -castSafely ( paramBotPlayerProvider1 : ch.hslu.cas.msed.blobfish.game.player.BotPlayerProvider ) : ch.hslu.cas.msed.blobfish.game.player.BotPlayerProvider
	{method}  {static} -create ( paramBotPlayerProvider1 : ch.hslu.cas.msed.blobfish.game.player.BotPlayerProvider , paramPlayerColor2 : ch.hslu.cas.msed.blobfish.base.PlayerColor , paramBotAlgorithm3 : ch.hslu.cas.msed.blobfish.base.BotAlgorithm ) : ch.hslu.cas.msed.blobfish.game.player.BotPlayer
	{method}  {static} +create ( paramString1 : String , paramString2 : String , paramint3 : int , paramEvaluationStrategy4 : ch.hslu.cas.msed.blobfish.base.EvaluationStrategy , paramPlayerColor5 : ch.hslu.cas.msed.blobfish.base.PlayerColor ) : ch.hslu.cas.msed.blobfish.game.player.BotPlayer
	{method}  {static} -getAlgorithmProviderReturnType ( paramBotAlgorithmProvider1 : ch.hslu.cas.msed.blobfish.game.player.BotAlgorithmProvider ) : Class
	{method}  {static} +getViableBotNames () : java.util.List
}


interface ch.hslu.cas.msed.blobfish.game.player.BotPlayerProvider {
	{method}  {abstract} +algorithmType () : Class
	{method}  {abstract} +create ( paramPlayerColor1 : ch.hslu.cas.msed.blobfish.base.PlayerColor , paramBotAlgorithm2 : ch.hslu.cas.msed.blobfish.base.BotAlgorithm ) : ch.hslu.cas.msed.blobfish.game.player.BotPlayer
	{method}  {abstract} +getBotName () : String
}


class ch.hslu.cas.msed.blobfish.game.player.HumanCliPlayer {
	{method} +getNextMove ( paramChessBoard1 : ch.hslu.cas.msed.blobfish.base.ChessBoard ) : String
}


class ch.hslu.cas.msed.blobfish.game.player.MiniMaxAlphaBetaSequentialAlgorithmProvider {
	{field} {static} -ALGORITHM_NAME : String
	{method} +create ( paramint1 : int , paramEvaluationStrategy2 : ch.hslu.cas.msed.blobfish.base.EvaluationStrategy , paramPlayerColor3 : ch.hslu.cas.msed.blobfish.base.PlayerColor ) : ch.hslu.cas.msed.blobfish.minimax.MiniMaxAlphaBetaSequential
	{method} +getAlgorithmName () : String
}


class ch.hslu.cas.msed.blobfish.game.player.MiniMaxAlphaBetaSequentialWithCacheAlgorithmProvider {
	{field} {static} -ALGORITHM_NAME : String
	{method} +create ( paramint1 : int , paramEvaluationStrategy2 : ch.hslu.cas.msed.blobfish.base.EvaluationStrategy , paramPlayerColor3 : ch.hslu.cas.msed.blobfish.base.PlayerColor ) : ch.hslu.cas.msed.blobfish.minimax.cached.MiniMaxAlphaBetaSequentialWithCache
	{method} +getAlgorithmName () : String
}


class ch.hslu.cas.msed.blobfish.game.player.MiniMaxBotPlayer {
	{method} +getNextMove ( paramChessBoard1 : ch.hslu.cas.msed.blobfish.base.ChessBoard ) : String
}


class ch.hslu.cas.msed.blobfish.game.player.MiniMaxBotPlayerProvider {
	{field} {static} -BOT_NAME : String
	{method} +algorithmType () : Class
	{method} +create ( paramPlayerColor1 : ch.hslu.cas.msed.blobfish.base.PlayerColor , paramMiniMaxAlgo2 : ch.hslu.cas.msed.blobfish.minimax.base.MiniMaxAlgo ) : ch.hslu.cas.msed.blobfish.game.player.BotPlayer
	{method} +getBotName () : String
}


class ch.hslu.cas.msed.blobfish.game.player.MiniMaxParallelAlgorithmProvider {
	{field} {static} -ALGORITHM_NAME : String
	{method} +create ( paramint1 : int , paramEvaluationStrategy2 : ch.hslu.cas.msed.blobfish.base.EvaluationStrategy , paramPlayerColor3 : ch.hslu.cas.msed.blobfish.base.PlayerColor ) : ch.hslu.cas.msed.blobfish.minimax.MiniMaxParallel
	{method} +getAlgorithmName () : String
}


class ch.hslu.cas.msed.blobfish.game.player.MiniMaxParallelWithCacheAlgorithmProvider {
	{field} {static} -ALGORITHM_NAME : String
	{method} +create ( paramint1 : int , paramEvaluationStrategy2 : ch.hslu.cas.msed.blobfish.base.EvaluationStrategy , paramPlayerColor3 : ch.hslu.cas.msed.blobfish.base.PlayerColor ) : ch.hslu.cas.msed.blobfish.minimax.cached.MiniMaxParallelWithCache
	{method} +getAlgorithmName () : String
}


class ch.hslu.cas.msed.blobfish.game.player.MiniMaxSequentialAlgorithmProvider {
	{field} {static} -ALGORITHM_NAME : String
	{method} +create ( paramint1 : int , paramEvaluationStrategy2 : ch.hslu.cas.msed.blobfish.base.EvaluationStrategy , paramPlayerColor3 : ch.hslu.cas.msed.blobfish.base.PlayerColor ) : ch.hslu.cas.msed.blobfish.minimax.MiniMaxSequential
	{method} +getAlgorithmName () : String
}


class ch.hslu.cas.msed.blobfish.game.player.MiniMaxSequentialWithCacheAlgorithmProvider {
	{field} {static} -ALGORITHM_NAME : String
	{method} +create ( paramint1 : int , paramEvaluationStrategy2 : ch.hslu.cas.msed.blobfish.base.EvaluationStrategy , paramPlayerColor3 : ch.hslu.cas.msed.blobfish.base.PlayerColor ) : ch.hslu.cas.msed.blobfish.minimax.cached.MiniMaxSequentialWithCache
	{method} +getAlgorithmName () : String
}


class ch.hslu.cas.msed.blobfish.game.ui.board.AlphanumericBorderFieldRenderer {
	{field} {static} +BG_COLOR : String
	{field} {static} +FG_COLOR : String
	{field} {static} +PLACEHOLDER_CHARACTER : char
	{field} {static} +PLACEHOLDER_COLOR : String
	{field} {static} +RESET : String
	{field} {static} +ROW_STRING_WHITE : String
	{method} +renderColumnField ( paramint1 : int ) : String
	{method}  {static} -renderEmptyField () : String
	{method} +renderRow ( paramPlayerColor1 : ch.hslu.cas.msed.blobfish.base.PlayerColor ) : String
	{method}  {static} -renderRowString ( paramPlayerColor1 : ch.hslu.cas.msed.blobfish.base.PlayerColor ) : String
}


class ch.hslu.cas.msed.blobfish.game.ui.board.BoardRenderer {
	{method} ~render ( paramUiBoard1 : ch.hslu.cas.msed.blobfish.game.ui.board.UiBoard , paramPlayerColor2 : ch.hslu.cas.msed.blobfish.base.PlayerColor ) : String
}


interface ch.hslu.cas.msed.blobfish.game.ui.board.BorderFieldRenderer {
	{method}  {abstract} +renderColumnField ( paramint1 : int ) : String
	{method}  {abstract} +renderRow ( paramPlayerColor1 : ch.hslu.cas.msed.blobfish.base.PlayerColor ) : String
}


class ch.hslu.cas.msed.blobfish.game.ui.board.ChessBoardRenderer {
	{field} -parser : ch.hslu.cas.msed.blobfish.game.ui.board.FenUiBoardParser
	{method} +render ( paramString1 : String , paramPlayerColor2 : ch.hslu.cas.msed.blobfish.base.PlayerColor ) : String
}


interface ch.hslu.cas.msed.blobfish.game.ui.board.FieldRenderer {
	{method}  {abstract} +render ( paramUiField1 : ch.hslu.cas.msed.blobfish.game.ui.board.UiField ) : String
}


enum ch.hslu.cas.msed.blobfish.game.ui.board.SquareColor {
	{field} +DARK
	{field} +LIGHT
}


class ch.hslu.cas.msed.blobfish.game.ui.screen.HomeScreen {
	{field} {static} -CALC_DEPTH : int
	{method} -getBotPlayer ( paramint1 : int , paramEvaluationStrategy2 : ch.hslu.cas.msed.blobfish.base.EvaluationStrategy , paramPlayerColor3 : ch.hslu.cas.msed.blobfish.base.PlayerColor ) : ch.hslu.cas.msed.blobfish.game.player.BotPlayer
	{method} +getMatchConfig () : ch.hslu.cas.msed.blobfish.game.MatchConfig
	{method} -getPlayerColor () : ch.hslu.cas.msed.blobfish.base.PlayerColor
}


class ch.hslu.cas.msed.blobfish.game.ui.screen.MatchScreen {
	{method} -getNextMove () : String
	{method} -printPosition ( paramPlayerColor1 : ch.hslu.cas.msed.blobfish.base.PlayerColor ) : void
	{method} -resetInternalBoard () : void
	{method} -shouldDisplayBoard ( paramAbstractPlayer1 : ch.hslu.cas.msed.blobfish.game.player.AbstractPlayer ) : boolean
	{method} +start () : void
}


class ch.hslu.cas.msed.blobfish.minimax.MiniMaxAlphaBetaSequential {
	{method} -calcBestPath ( paramChessBoard1 : ch.hslu.cas.msed.blobfish.base.ChessBoard , paramint2 : int , paramPlayerColor3 : ch.hslu.cas.msed.blobfish.base.PlayerColor , paramMoveHistoryNode4 : ch.hslu.cas.msed.blobfish.minimax.base.MoveHistoryNode , paramint5 : int , paramint6 : int ) : ch.hslu.cas.msed.blobfish.minimax.base.MoveNode
	{method} +getBestPath ( paramChessBoard1 : ch.hslu.cas.msed.blobfish.base.ChessBoard ) : ch.hslu.cas.msed.blobfish.base.PathEvaluation
	{method}  {static} -getSanOfMove ( paramMove1 : com.github.bhlangonijr.chesslib.move.Move ) : String
}


class ch.hslu.cas.msed.blobfish.minimax.MiniMaxParallel {
	{field} {static} -DEPTH_THRESHOLD_PERCENTAGE : int
	{field} {static} -MIN_DEPTH_THRESHOLD : int
	{field} {static} -MOVE_THRESHOLD : int
	{method} -calculateDepthThreshold () : int
	{method} +getBestPath ( paramChessBoard1 : ch.hslu.cas.msed.blobfish.base.ChessBoard ) : ch.hslu.cas.msed.blobfish.base.PathEvaluation
}


class ch.hslu.cas.msed.blobfish.minimax.MiniMaxSequential {
	{method} -calcBestPath ( paramChessBoard1 : ch.hslu.cas.msed.blobfish.base.ChessBoard , paramint2 : int , paramPlayerColor3 : ch.hslu.cas.msed.blobfish.base.PlayerColor , paramMoveHistoryNode4 : ch.hslu.cas.msed.blobfish.minimax.base.MoveHistoryNode ) : ch.hslu.cas.msed.blobfish.minimax.base.MoveNode
	{method} +getBestPath ( paramChessBoard1 : ch.hslu.cas.msed.blobfish.base.ChessBoard ) : ch.hslu.cas.msed.blobfish.base.PathEvaluation
	{method}  {static} -getSanOfMove ( paramMove1 : com.github.bhlangonijr.chesslib.move.Move ) : String
}


abstract class ch.hslu.cas.msed.blobfish.minimax.base.MiniMaxAlgo {
}


class ch.hslu.cas.msed.blobfish.minimax.base.MiniMaxRecursiveTask {
	{field} -depth : int
	{field} -depthThreshold : int
	{field} -moveThreshold : int
	{method} #compute () : ch.hslu.cas.msed.blobfish.minimax.base.MoveNode
	{method} -createSubTasks () : java.util.List
	{method} -getEvaluation () : ch.hslu.cas.msed.blobfish.minimax.base.MoveNode
	{method} -getMoveNodeComparator () : java.util.Comparator
}


class ch.hslu.cas.msed.blobfish.minimax.base.MoveHistoryNode {
	{field} -depth : int
	{field} -move : String
	{method} +depth () : int
	{method} +equals ( paramObject1 : Object ) : boolean
	{method} +hashCode () : int
	{method} +move () : String
	{method} +parent () : ch.hslu.cas.msed.blobfish.minimax.base.MoveHistoryNode
	{method} +toString () : String
}


class ch.hslu.cas.msed.blobfish.minimax.base.MoveNode {
	{field} -eval : int
	{method} +equals ( paramObject1 : Object ) : boolean
	{method} +eval () : int
	{method} +hashCode () : int
	{method} +history () : ch.hslu.cas.msed.blobfish.minimax.base.MoveHistoryNode
	{method} +toString () : String
}


class ch.hslu.cas.msed.blobfish.minimax.base.MoveNodeMapper {
	{method} +mapToPathEvaluation ( paramMoveNode1 : ch.hslu.cas.msed.blobfish.minimax.base.MoveNode ) : ch.hslu.cas.msed.blobfish.base.PathEvaluation
}


class ch.hslu.cas.msed.blobfish.minimax.cached.MiniMaxAlphaBetaSequentialWithCache {
	{method} -calcBestPath ( paramChessBoard1 : ch.hslu.cas.msed.blobfish.base.ChessBoard , paramint2 : int , paramPlayerColor3 : ch.hslu.cas.msed.blobfish.base.PlayerColor , paramMoveHistoryNode4 : ch.hslu.cas.msed.blobfish.minimax.base.MoveHistoryNode , paramint5 : int , paramint6 : int ) : ch.hslu.cas.msed.blobfish.minimax.base.MoveNode
	{method} #createCache () : java.util.Map
	{method} -determineBoundType ( paramint1 : int , paramint2 : int , paramint3 : int ) : ch.hslu.cas.msed.blobfish.minimax.cached.base.EvaluationCacheEntry$BoundType
	{method} +getBestPath ( paramChessBoard1 : ch.hslu.cas.msed.blobfish.base.ChessBoard ) : ch.hslu.cas.msed.blobfish.base.PathEvaluation
	{method}  {static} -getSanOfMove ( paramMove1 : com.github.bhlangonijr.chesslib.move.Move ) : String
	{method} -isCacheWithinBounds ( paramEvaluationCacheEntry1 : ch.hslu.cas.msed.blobfish.minimax.cached.base.EvaluationCacheEntry , paramint2 : int , paramint3 : int ) : boolean
}


class ch.hslu.cas.msed.blobfish.minimax.cached.MiniMaxParallelWithCache {
	{field} {static} -DEPTH_THRESHOLD_PERCENTAGE : int
	{field} {static} -MIN_DEPTH_THRESHOLD : int
	{field} {static} -MOVE_THRESHOLD : int
	{method} -calculateDepthThreshold () : int
	{method} #createCache () : java.util.Map
	{method} +getBestPath ( paramChessBoard1 : ch.hslu.cas.msed.blobfish.base.ChessBoard ) : ch.hslu.cas.msed.blobfish.base.PathEvaluation
}


class ch.hslu.cas.msed.blobfish.minimax.cached.MiniMaxSequentialWithCache {
	{method} -calcBestPath ( paramChessBoard1 : ch.hslu.cas.msed.blobfish.base.ChessBoard , paramint2 : int , paramPlayerColor3 : ch.hslu.cas.msed.blobfish.base.PlayerColor , paramMoveHistoryNode4 : ch.hslu.cas.msed.blobfish.minimax.base.MoveHistoryNode ) : ch.hslu.cas.msed.blobfish.minimax.base.MoveNode
	{method} #createCache () : java.util.Map
	{method} +getBestPath ( paramChessBoard1 : ch.hslu.cas.msed.blobfish.base.ChessBoard ) : ch.hslu.cas.msed.blobfish.base.PathEvaluation
	{method}  {static} -getSanOfMove ( paramMove1 : com.github.bhlangonijr.chesslib.move.Move ) : String
}


class ch.hslu.cas.msed.blobfish.minimax.cached.base.EvaluationCache {
	{method} +buildPrincipalVariation ( paramChessBoard1 : ch.hslu.cas.msed.blobfish.base.ChessBoard , paramMoveHistoryNode2 : ch.hslu.cas.msed.blobfish.minimax.base.MoveHistoryNode , paramint3 : int ) : ch.hslu.cas.msed.blobfish.minimax.base.MoveHistoryNode
	{method} +clear () : void
	{method} +get ( paramString1 : String , paramint2 : int ) : ch.hslu.cas.msed.blobfish.minimax.cached.base.EvaluationCacheEntry
	{method} +put ( paramString1 : String , paramEvaluationCacheEntry2 : ch.hslu.cas.msed.blobfish.minimax.cached.base.EvaluationCacheEntry ) : void
}


class ch.hslu.cas.msed.blobfish.minimax.cached.base.EvaluationCacheEntry {
	{field} -bestMove : String
	{field} -depth : int
	{field} -value : int
	{method} +bestMove () : String
	{method} +depth () : int
	{method} +equals ( paramObject1 : Object ) : boolean
	{method} +hashCode () : int
	{method} +toString () : String
	{method} +type () : ch.hslu.cas.msed.blobfish.minimax.cached.base.EvaluationCacheEntry$BoundType
	{method} +value () : int
}


enum ch.hslu.cas.msed.blobfish.minimax.cached.base.EvaluationCacheEntry$BoundType {
	{field} +EXACT
	{field} +LOWER_BOUND
	{field} +UPPER_BOUND
}


abstract class ch.hslu.cas.msed.blobfish.minimax.cached.base.MiniMaxCachedAlgo {
	{method} #clearCache () : void
	{method}  {abstract} #createCache () : java.util.Map
}


class ch.hslu.cas.msed.blobfish.minimax.cached.base.MiniMaxRecursiveWithCacheTask {
	{field} -depth : int
	{field} -depthThreshold : int
	{field} -moveThreshold : int
	{method} #compute () : ch.hslu.cas.msed.blobfish.minimax.base.MoveNode
	{method} -createSubTasks ( paramList1 : java.util.List ) : java.util.List
	{method} -getEvaluation () : ch.hslu.cas.msed.blobfish.minimax.base.MoveNode
	{method} -getMoveNodeComparator () : java.util.Comparator
}




ch.hslu.cas.msed.blobfish.base.BotAlgorithm *--  ch.hslu.cas.msed.blobfish.base.EvaluationStrategy : evaluationStrategy
ch.hslu.cas.msed.blobfish.base.BotAlgorithm *--  ch.hslu.cas.msed.blobfish.base.PlayerColor : ownPlayerColor
ch.hslu.cas.msed.blobfish.base.Piece *--  ch.hslu.cas.msed.blobfish.base.PieceType : type
ch.hslu.cas.msed.blobfish.base.Piece *--  ch.hslu.cas.msed.blobfish.base.PlayerColor : color
ch.hslu.cas.msed.blobfish.eval.CompositeEvaluationStrategy "1" o-- "0..*"  ch.hslu.cas.msed.blobfish.base.EvaluationStrategy : strategies
ch.hslu.cas.msed.blobfish.eval.CompositeEvaluationStrategy ..|>  ch.hslu.cas.msed.blobfish.base.EvaluationStrategy
ch.hslu.cas.msed.blobfish.eval.CompositeEvaluationStrategy$Builder "1" o-- "0..*"  ch.hslu.cas.msed.blobfish.base.EvaluationStrategy : strategies
ch.hslu.cas.msed.blobfish.eval.MateAwareEvaluation ..|>  ch.hslu.cas.msed.blobfish.base.EvaluationStrategy
ch.hslu.cas.msed.blobfish.eval.MaterialEvaluation ..|>  ch.hslu.cas.msed.blobfish.base.EvaluationStrategy
ch.hslu.cas.msed.blobfish.eval.PieceSquareEvaluation ..|>  ch.hslu.cas.msed.blobfish.base.EvaluationStrategy
ch.hslu.cas.msed.blobfish.game.MatchConfig *--  ch.hslu.cas.msed.blobfish.game.player.AbstractPlayer : black
ch.hslu.cas.msed.blobfish.game.MatchConfig *--  ch.hslu.cas.msed.blobfish.game.player.AbstractPlayer : white
ch.hslu.cas.msed.blobfish.game.player.AbstractPlayer *--  ch.hslu.cas.msed.blobfish.base.PlayerColor : playerColor
ch.hslu.cas.msed.blobfish.game.player.BotPlayer *--  ch.hslu.cas.msed.blobfish.base.BotAlgorithm : botAlgorithm
ch.hslu.cas.msed.blobfish.game.player.BotPlayer --|>  ch.hslu.cas.msed.blobfish.game.player.AbstractPlayer
ch.hslu.cas.msed.blobfish.game.player.BotPlayerFactory "1" o-- "0..*"  ch.hslu.cas.msed.blobfish.game.player.BotAlgorithmProvider : ALGORITHMS
ch.hslu.cas.msed.blobfish.game.player.BotPlayerFactory "1" o-- "0..*"  ch.hslu.cas.msed.blobfish.game.player.BotPlayerProvider : BOT_PLAYERS
ch.hslu.cas.msed.blobfish.game.player.HumanCliPlayer *--  ch.hslu.cas.msed.blobfish.game.InputReader : reader
ch.hslu.cas.msed.blobfish.game.player.HumanCliPlayer --|>  ch.hslu.cas.msed.blobfish.game.player.AbstractPlayer
ch.hslu.cas.msed.blobfish.game.player.MiniMaxAlphaBetaSequentialAlgorithmProvider ..|>  ch.hslu.cas.msed.blobfish.game.player.BotAlgorithmProvider
ch.hslu.cas.msed.blobfish.game.player.MiniMaxAlphaBetaSequentialWithCacheAlgorithmProvider ..|>  ch.hslu.cas.msed.blobfish.game.player.BotAlgorithmProvider
ch.hslu.cas.msed.blobfish.game.player.MiniMaxBotPlayer --|>  ch.hslu.cas.msed.blobfish.game.player.BotPlayer
ch.hslu.cas.msed.blobfish.game.player.MiniMaxBotPlayerProvider ..|>  ch.hslu.cas.msed.blobfish.game.player.BotPlayerProvider
ch.hslu.cas.msed.blobfish.game.player.MiniMaxParallelAlgorithmProvider ..|>  ch.hslu.cas.msed.blobfish.game.player.BotAlgorithmProvider
ch.hslu.cas.msed.blobfish.game.player.MiniMaxParallelWithCacheAlgorithmProvider ..|>  ch.hslu.cas.msed.blobfish.game.player.BotAlgorithmProvider
ch.hslu.cas.msed.blobfish.game.player.MiniMaxSequentialAlgorithmProvider ..|>  ch.hslu.cas.msed.blobfish.game.player.BotAlgorithmProvider
ch.hslu.cas.msed.blobfish.game.player.MiniMaxSequentialWithCacheAlgorithmProvider ..|>  ch.hslu.cas.msed.blobfish.game.player.BotAlgorithmProvider
ch.hslu.cas.msed.blobfish.game.ui.board.AlphanumericBorderFieldRenderer ..|>  ch.hslu.cas.msed.blobfish.game.ui.board.BorderFieldRenderer
ch.hslu.cas.msed.blobfish.game.ui.board.BoardRenderer *--  ch.hslu.cas.msed.blobfish.game.ui.board.BorderFieldRenderer : borderFieldRenderer
ch.hslu.cas.msed.blobfish.game.ui.board.BoardRenderer *--  ch.hslu.cas.msed.blobfish.game.ui.board.FieldRenderer : fieldRenderer
ch.hslu.cas.msed.blobfish.game.ui.board.ChessBoardRenderer *--  ch.hslu.cas.msed.blobfish.game.ui.board.BoardRenderer : boardRenderer
ch.hslu.cas.msed.blobfish.game.ui.screen.HomeScreen *--  ch.hslu.cas.msed.blobfish.game.InputReader : reader
ch.hslu.cas.msed.blobfish.game.ui.screen.HomeScreen *--  ch.hslu.cas.msed.blobfish.game.OutputWriter : writer
ch.hslu.cas.msed.blobfish.game.ui.screen.MatchScreen *--  ch.hslu.cas.msed.blobfish.game.OutputWriter : writer
ch.hslu.cas.msed.blobfish.game.ui.screen.MatchScreen *--  ch.hslu.cas.msed.blobfish.game.player.AbstractPlayer : black
ch.hslu.cas.msed.blobfish.game.ui.screen.MatchScreen *--  ch.hslu.cas.msed.blobfish.game.player.AbstractPlayer : white
ch.hslu.cas.msed.blobfish.game.ui.screen.MatchScreen *--  ch.hslu.cas.msed.blobfish.game.ui.board.ChessBoardRenderer : chessBoardRenderer
ch.hslu.cas.msed.blobfish.game.ui.screen.MatchScreen -->  ch.hslu.cas.msed.blobfish.base.ChessBoard : chessboard
ch.hslu.cas.msed.blobfish.game.ui.screen.MatchScreen -->  ch.hslu.cas.msed.blobfish.game.player.AbstractPlayer : currentPlayer
ch.hslu.cas.msed.blobfish.minimax.MiniMaxAlphaBetaSequential *--  ch.hslu.cas.msed.blobfish.minimax.base.MoveNodeMapper : moveNodeMapper
ch.hslu.cas.msed.blobfish.minimax.MiniMaxAlphaBetaSequential --|>  ch.hslu.cas.msed.blobfish.minimax.base.MiniMaxAlgo
ch.hslu.cas.msed.blobfish.minimax.MiniMaxParallel *--  ch.hslu.cas.msed.blobfish.minimax.base.MoveNodeMapper : moveNodeMapper
ch.hslu.cas.msed.blobfish.minimax.MiniMaxParallel --|>  ch.hslu.cas.msed.blobfish.minimax.base.MiniMaxAlgo
ch.hslu.cas.msed.blobfish.minimax.MiniMaxSequential *--  ch.hslu.cas.msed.blobfish.minimax.base.MoveNodeMapper : moveNodeMapper
ch.hslu.cas.msed.blobfish.minimax.MiniMaxSequential --|>  ch.hslu.cas.msed.blobfish.minimax.base.MiniMaxAlgo
ch.hslu.cas.msed.blobfish.minimax.base.MiniMaxAlgo --|>  ch.hslu.cas.msed.blobfish.base.BotAlgorithm
ch.hslu.cas.msed.blobfish.minimax.base.MiniMaxRecursiveTask *--  ch.hslu.cas.msed.blobfish.base.ChessBoard : chessBoard
ch.hslu.cas.msed.blobfish.minimax.base.MiniMaxRecursiveTask *--  ch.hslu.cas.msed.blobfish.base.EvaluationStrategy : evaluationStrategy
ch.hslu.cas.msed.blobfish.minimax.base.MiniMaxRecursiveTask *--  ch.hslu.cas.msed.blobfish.base.PlayerColor : playerAtTurn
ch.hslu.cas.msed.blobfish.minimax.base.MiniMaxRecursiveTask *--  ch.hslu.cas.msed.blobfish.minimax.base.MoveHistoryNode : history
ch.hslu.cas.msed.blobfish.minimax.base.MoveHistoryNode *--  ch.hslu.cas.msed.blobfish.minimax.base.MoveHistoryNode : parent
ch.hslu.cas.msed.blobfish.minimax.base.MoveNode *--  ch.hslu.cas.msed.blobfish.minimax.base.MoveHistoryNode : history
ch.hslu.cas.msed.blobfish.minimax.cached.MiniMaxAlphaBetaSequentialWithCache *--  ch.hslu.cas.msed.blobfish.minimax.base.MoveNodeMapper : moveNodeMapper
ch.hslu.cas.msed.blobfish.minimax.cached.MiniMaxAlphaBetaSequentialWithCache --|>  ch.hslu.cas.msed.blobfish.minimax.cached.base.MiniMaxCachedAlgo
ch.hslu.cas.msed.blobfish.minimax.cached.MiniMaxParallelWithCache *--  ch.hslu.cas.msed.blobfish.minimax.base.MoveNodeMapper : moveNodeMapper
ch.hslu.cas.msed.blobfish.minimax.cached.MiniMaxParallelWithCache --|>  ch.hslu.cas.msed.blobfish.minimax.cached.base.MiniMaxCachedAlgo
ch.hslu.cas.msed.blobfish.minimax.cached.MiniMaxSequentialWithCache *--  ch.hslu.cas.msed.blobfish.minimax.base.MoveNodeMapper : moveNodeMapper
ch.hslu.cas.msed.blobfish.minimax.cached.MiniMaxSequentialWithCache --|>  ch.hslu.cas.msed.blobfish.minimax.cached.base.MiniMaxCachedAlgo
ch.hslu.cas.msed.blobfish.minimax.cached.base.EvaluationCache "1" o-- "0..*"  ch.hslu.cas.msed.blobfish.minimax.cached.base.EvaluationCacheEntry : transpositionTable
ch.hslu.cas.msed.blobfish.minimax.cached.base.EvaluationCacheEntry *--  ch.hslu.cas.msed.blobfish.minimax.cached.base.EvaluationCacheEntry$BoundType : type
ch.hslu.cas.msed.blobfish.minimax.cached.base.MiniMaxCachedAlgo *--  ch.hslu.cas.msed.blobfish.minimax.cached.base.EvaluationCache : cache
ch.hslu.cas.msed.blobfish.minimax.cached.base.MiniMaxCachedAlgo --|>  ch.hslu.cas.msed.blobfish.minimax.base.MiniMaxAlgo
ch.hslu.cas.msed.blobfish.minimax.cached.base.MiniMaxRecursiveWithCacheTask *--  ch.hslu.cas.msed.blobfish.base.ChessBoard : chessBoard
ch.hslu.cas.msed.blobfish.minimax.cached.base.MiniMaxRecursiveWithCacheTask *--  ch.hslu.cas.msed.blobfish.base.EvaluationStrategy : evaluationStrategy
ch.hslu.cas.msed.blobfish.minimax.cached.base.MiniMaxRecursiveWithCacheTask *--  ch.hslu.cas.msed.blobfish.base.PlayerColor : playerAtTurn
ch.hslu.cas.msed.blobfish.minimax.cached.base.MiniMaxRecursiveWithCacheTask *--  ch.hslu.cas.msed.blobfish.minimax.base.MoveHistoryNode : history
ch.hslu.cas.msed.blobfish.minimax.cached.base.MiniMaxRecursiveWithCacheTask *--  ch.hslu.cas.msed.blobfish.minimax.cached.base.EvaluationCache : cache

hide fields
hide methods

@enduml